PathFileType	4	(X/Y/Z)	C:\Users\Basilio\Documents\Thesis Gigler\squatting_fais\c3dfiles\075\SJ_pre2\markers_experimental.trc
DataRate	CameraRate	NumFrames	NumMarkers	Units	OrigDataRate	OrigDataStartFrame	OrigNumFrames
200.000000	200.000000	4	61	mm	200.000000	635	1695
Frame#	Time	FHD			LBHD			C7			T10			CLAV			LSHO			LUUPA			LMUPA			LDUPA			LLEP			LMEP			LRAD			LUL			LRFIN			RSHO			RUPA1			RMUPA			RDUPA			RLEP			RMEP			RRAD			RUL			RUFIN			LASI			RASI			USACR			LSACR			RSACR			LTHI1			LTHI2			LTHI3			LTHI4			LLFC			LMFC			LTIB1			LTIB2			LTIB3			LTIB4			LLMAL			LMMAL			LHEE			LMT1			LMT2			LMT5			RTHI			RTHI2			RTHI3			RTHI4			RLFC			RMFC			RTIB1			RTIB2			RTIB3			RTIB4			RLMAL			RMMAL			RHEE			RMT1			RMT2			RMT5			RBHD			
		X1	Y1	Z1	X2	Y2	Z2	X3	Y3	Z3	X4	Y4	Z4	X5	Y5	Z5	X6	Y6	Z6	X7	Y7	Z7	X8	Y8	Z8	X9	Y9	Z9	X10	Y10	Z10	X11	Y11	Z11	X12	Y12	Z12	X13	Y13	Z13	X14	Y14	Z14	X15	Y15	Z15	X16	Y16	Z16	X17	Y17	Z17	X18	Y18	Z18	X19	Y19	Z19	X20	Y20	Z20	X21	Y21	Z21	X22	Y22	Z22	X23	Y23	Z23	X24	Y24	Z24	X25	Y25	Z25	X26	Y26	Z26	X27	Y27	Z27	X28	Y28	Z28	X29	Y29	Z29	X30	Y30	Z30	X31	Y31	Z31	X32	Y32	Z32	X33	Y33	Z33	X34	Y34	Z34	X35	Y35	Z35	X36	Y36	Z36	X37	Y37	Z37	X38	Y38	Z38	X39	Y39	Z39	X40	Y40	Z40	X41	Y41	Z41	X42	Y42	Z42	X43	Y43	Z43	X44	Y44	Z44	X45	Y45	Z45	X46	Y46	Z46	X47	Y47	Z47	X48	Y48	Z48	X49	Y49	Z49	X50	Y50	Z50	X51	Y51	Z51	X52	Y52	Z52	X53	Y53	Z53	X54	Y54	Z54	X55	Y55	Z55	X56	Y56	Z56	X57	Y57	Z57	X58	Y58	Z58	X59	Y59	Z59	X60	Y60	Z60	X61	Y61	Z61	

636	3.175	97.26380157470706	1074.3388671875	-883.3197021484377	-89.09830474853517	1088.699340820313	-958.1196289062502	-197.0583190917969	1027.813720703125	-902.392517089844	-437.7005615234376	811.1406860351565	-902.545837402344	-125.9393157958985	886.579528808594	-898.7427368164065	-112.7348861694336	945.7388305664065	-1047.565795898438	-205.2008209228516	856.357116699219	-1231.1806640625	-211.2888793945313	808.4091796875002	-1218.019287109375	-238.3703155517579	809.0628662109377	-1272.27587890625	-294.2987670898438	744.2669067382814	-1298.316772460938	-361.5384521484376	804.2036132812502	-1279.22998046875	-455.3047790527345	651.7701416015626	-1124.859252929688	-422.6988830566407	589.4097900390626	-1151.44775390625	-427.1246032714845	644.4456787109376	-1065.199829101563	-125.6493377685547	945.873229980469	-745.4860229492189	-245.7324523925782	885.424499511719	-577.9795532226564	-255.9735107421876	836.1525878906252	-579.8004150390626	-291.0741882324219	853.1439208984377	-533.5642700195314	-341.7272949218751	806.0914306640627	-503.8225097656251	-416.1875610351564	843.1501464843752	-528.9960327148439	-424.6113891601564	609.2338256835939	-648.5483398437501	-458.2622680664064	659.1204833984376	-694.7326660156251	-412.7429199218751	650.1142578125001	-744.7749633789064	-404.631561279297	605.2968139648439	-1022.80908203125	-412.4759216308595	625.1029052734376	-780.2481689453127	-520.2183227539064	726.2711791992189	-905.3492431640627	-547.0676879882814	705.3362426757814	-931.132751464844	-546.2774658203126	705.7121582031251	-875.6989746093752	-389.681610107422	519.7683105468751	-1130.479614257813	-307.2730102539063	511.4271545410157	-1141.942504882813	-286.6180725097657	545.9677124023439	-1111.810913085938	-274.8108215332032	462.697479248047	-1153.225952148438	-194.4999389648438	406.8162841796876	-1151.800659179688	-150.4070434570313	397.7262268066407	-1028.056518554688	-164.3196563720703	283.6194763183594	-1109.424438476563	-241.0155944824219	270.0668640136719	-1155.003540039063	-208.2041473388672	250.0814514160157	-1133.587280273438	-248.7218933105469	187.1099395751953	-1098.756469726563	-385.9819641113282	92.55770111083986	-1105.890380859375	-344.4491577148438	99.78971099853518	-1024.86962890625	-440.3281250000001	50.61218643188478	-1051.707153320313	-227.6752014160157	52.11911392211915	-1071.490478515625	-235.8005371093751	57.94344329833986	-1119.657958984375	-283.3569946289063	42.52521133422852	-1165.430908203125	-432.6893005371095	532.6671752929689	-685.4957275390626	-368.2526550292969	542.3292846679689	-681.3572998046876	-357.4732666015626	569.7073974609376	-701.4082031250001	-310.5799865722657	484.3025207519532	-666.2273559570314	-192.1360626220704	408.1846618652345	-675.3125000000001	-156.361328125	406.7703857421876	-793.0745239257815	-177.0785217285157	271.4732971191407	-744.9143676757814	-261.5716552734376	222.3555297851563	-692.8371582031251	-231.0863342285157	206.8532714843751	-724.8444213867189	-256.7881164550782	173.095932006836	-766.9455566406251	-374.6088256835938	89.36866760253908	-737.7494506835939	-331.9131774902344	106.2294921875	-817.0447998046877	-424.4248657226564	50.19926071166994	-800.2828369140627	-216.8247070312501	58.08108139038087	-763.0305175781251	-226.635971069336	57.81551361083986	-722.5332031250001	-269.8891906738282	35.81803894042969	-676.3936767578126	-40.57288360595704	1088.708129882813	-805.618347167969	
637	3.18	97.52868652343753	1073.911254882813	-883.3022460937502	-89.31099700927736	1087.798583984375	-958.2859497070315	-197.0983581542969	1026.963500976563	-902.423767089844	-437.4141235351564	809.9500122070315	-902.770690917969	-125.8289184570313	885.7060546875002	-898.8596801757815	-112.7543029785157	945.1387939453127	-1047.699584960938	-205.441146850586	855.8369750976565	-1231.390502929688	-212.0041046142579	808.2955322265627	-1218.0654296875	-238.3233032226563	808.4622192382815	-1272.46240234375	-294.3614196777344	743.6674804687501	-1298.525756835938	-361.4570922851563	803.479675292969	-1279.331909179688	-455.4364013671876	651.0584106445314	-1125.0556640625	-422.671600341797	588.9237060546876	-1151.631469726563	-427.3522033691407	643.9411010742189	-1065.318237304688	-125.5095825195313	944.890563964844	-745.5416259765626	-245.4831085205079	884.4068603515627	-578.0300292968751	-255.8914947509766	835.151794433594	-579.9212036132814	-290.8562927246094	852.1540527343752	-533.6558227539064	-341.6104125976563	805.0745849609377	-503.8932495117189	-415.9923400878907	842.4468383789065	-528.9467773437501	-425.5467834472657	608.2261352539064	-649.4290771484376	-458.4702148437501	658.5186767578126	-694.9462280273439	-412.960662841797	649.3959350585939	-744.8118896484376	-405.1502075195314	604.1437377929689	-1023.081176757813	-412.6943664550782	624.3792724609376	-780.6854248046877	-520.4369506835939	725.2954101562501	-905.442565917969	-547.1322631835939	704.5382080078126	-931.3538818359377	-546.3271484375001	705.1429443359376	-875.8807373046877	-389.5738525390626	519.2391967773439	-1130.518432617188	-306.8806152343751	510.852020263672	-1141.872314453125	-286.6802062988282	545.5840454101564	-1111.826293945313	-274.5623168945313	462.2141723632814	-1153.413452148438	-194.2987976074219	406.6972045898439	-1151.866088867188	-150.1840362548828	397.589569091797	-1027.932250976563	-164.1282501220703	283.3719787597657	-1109.354614257813	-240.9735107421876	269.8923645019532	-1154.859985351563	-208.0832214355469	250.1599884033204	-1133.527099609375	-248.4985046386719	187.0037841796875	-1098.692504882813	-385.957000732422	92.63759613037111	-1105.828979492188	-344.4237365722657	99.76523590087893	-1024.848754882813	-440.2678222656251	50.57445907592775	-1051.670043945313	-228.4141082763672	51.47778701782228	-1071.749389648438	-235.8591613769532	57.91770172119142	-1119.687255859375	-283.4707946777344	42.55211257934571	-1165.420043945313	-432.8540649414064	532.1227416992189	-685.6362304687501	-368.3578796386719	541.9475708007814	-681.5513916015626	-357.6583862304688	569.3143310546876	-701.5108032226564	-310.7300109863282	483.9873352050782	-666.3313598632814	-192.168930053711	408.0987243652345	-675.6378173828126	-155.3469696044922	406.4319458007814	-793.1134033203127	-177.0342254638672	271.4129943847657	-744.8279418945314	-261.5797119140626	222.2811279296876	-692.8228759765626	-231.0938873291016	206.8018341064454	-724.8434448242189	-258.3764648437501	172.9186248779297	-767.4849853515626	-374.6275024414063	89.3850555419922	-737.7766113281251	-331.9529113769532	106.2441864013672	-817.0927734375002	-424.3900451660157	50.17466354370119	-800.2878417968752	-216.8423004150391	58.08166885375978	-763.0429077148439	-226.5939483642579	57.88983154296876	-722.5115966796876	-269.8875732421876	35.83837890625001	-676.4204101562501	-40.8727035522461	1087.99951171875	-805.865661621094	
638	3.185	97.05681610107425	1074.040893554688	-883.391052246094	-89.41884613037111	1087.1943359375	-958.4318847656252	-197.1188354492188	1026.143310546875	-902.4463500976565	-437.6061096191407	809.3247680664065	-902.7252197265627	-125.7429656982422	884.8189697265627	-899.0298461914065	-112.7056579589844	944.4534912109377	-1047.754028320313	-205.938217163086	855.2576904296877	-1231.647705078125	-212.1882324218751	807.6164550781252	-1218.237182617188	-238.4251861572266	807.858337402344	-1272.6474609375	-294.4626464843751	743.1436157226564	-1298.661010742188	-361.6153564453126	802.908386230469	-1279.421875	-455.5755004882814	650.4962158203126	-1125.225463867188	-422.9583129882814	588.4832763671876	-1151.82958984375	-427.503875732422	643.2591552734376	-1065.434692382813	-125.3540649414063	943.977966308594	-745.5632324218751	-245.1971588134766	883.4849243164065	-578.0384521484376	-255.7289428710938	834.191101074219	-580.0823974609376	-290.7575988769532	851.3340454101565	-533.7261352539064	-341.4241333007813	804.2688598632815	-503.9026184082032	-415.7885742187501	841.6721191406252	-528.8850097656251	-425.7905273437501	607.5462036132814	-649.6765747070314	-458.6616210937501	658.0954589843751	-695.1979370117189	-413.1377258300782	648.7691650390626	-745.0254516601564	-402.5960998535157	604.8840942382814	-1021.809448242188	-413.0091247558595	625.1047973632814	-779.5107421875002	-520.8663330078126	724.4930419921876	-905.4888305664065	-546.6453857421876	703.6990966796876	-931.8171386718752	-546.4457397460939	704.3555908203126	-876.0957641601565	-389.6395874023439	518.8170776367189	-1130.71728515625	-306.7870178222657	510.5943603515626	-1141.924926757813	-286.7600708007813	545.2188110351564	-1111.987426757813	-274.4128417968751	461.934051513672	-1153.515502929688	-194.0227508544922	406.534637451172	-1151.869384765625	-149.9913635253907	397.4099426269532	-1027.915893554688	-163.9045715332032	283.3466491699219	-1109.430786132813	-240.7969818115235	269.8442077636719	-1154.859619140625	-207.9211425781251	250.0842285156251	-1133.439453125	-248.4897918701172	186.8579559326172	-1098.619018554688	-385.9437561035157	92.63282012939455	-1105.744384765625	-344.3605346679688	99.72398376464847	-1024.8173828125	-440.285614013672	50.59758377075197	-1051.613037109375	-228.7435913085938	51.40023803710939	-1072.036254882813	-235.9432678222657	57.87290573120119	-1119.713989257813	-283.3953857421876	42.53716659545899	-1165.428466796875	-433.103240966797	531.5657958984376	-685.8667602539064	-368.6463012695313	541.4584960937501	-681.6887817382814	-357.8868103027344	568.9325561523439	-701.6761474609376	-310.8276977539063	483.7528076171876	-666.4749145507814	-192.1657257080079	408.0322570800782	-675.5588989257814	-155.2945861816407	406.384735107422	-793.0704345703127	-177.0269470214844	271.3643798828126	-744.8347167968751	-261.5499267578126	222.2799682617188	-692.8826293945314	-231.628158569336	206.7138671875001	-725.3305053710939	-258.3099670410157	172.9539031982422	-767.4643554687501	-374.6296691894532	89.36029052734376	-737.7835693359376	-331.8533020019532	106.2621765136719	-817.160583496094	-424.4351196289064	50.1841506958008	-800.3306884765627	-216.8508605957032	58.06543731689455	-763.0321655273439	-226.6013793945313	57.84001922607423	-722.5712890625001	-269.8927612304688	35.84263229370118	-676.4146728515626	-40.54961395263673	1087.535522460938	-805.2709960937502	
639	3.19	97.38282012939456	1073.707153320313	-883.357604980469	-89.65475463867189	1086.080688476563	-958.457458496094	-197.2498016357422	1025.288696289063	-902.5120849609377	-437.4551086425782	808.670104980469	-902.9320068359377	-125.7671356201172	884.2282714843752	-899.2791137695315	-112.6758346557617	943.5932617187502	-1047.933959960938	-206.0143280029297	854.618103027344	-1231.888916015625	-211.5755157470704	806.7276611328127	-1218.5048828125	-238.3757781982422	807.2370605468752	-1272.845458984375	-294.5882568359376	742.6905517578126	-1298.8818359375	-361.7029113769532	802.3909912109377	-1279.599853515625	-455.667205810547	649.9595336914064	-1125.368408203125	-423.0179443359376	587.9479980468751	-1152.017333984375	-427.3861694335939	642.6102294921876	-1065.513061523438	-125.2149505615235	943.2100219726565	-745.6901245117189	-245.1253967285157	882.7812500000002	-578.1779785156251	-255.5422821044922	833.4781494140627	-580.0814819335939	-290.5907592773438	850.4029541015627	-533.7409057617189	-341.2993469238282	803.4566040039065	-504.0582275390626	-415.7012023925782	840.7716064453127	-529.0676269531251	-425.4164123535157	607.2902221679689	-649.2676391601564	-458.9095458984376	657.5264282226564	-695.3592529296876	-413.3658752441407	648.2158203125001	-745.2336425781251	-402.4485473632814	604.7067260742189	-1022.215270996094	-412.7278137207032	624.6640014648439	-779.8826904296877	-520.8556518554689	724.0053710937501	-905.6960449218752	-546.7199707031251	703.0592651367189	-932.0129394531252	-546.4796752929689	703.6723022460939	-876.3518066406252	-389.5796203613282	518.2945556640626	-1130.85400390625	-306.7316284179688	510.2151489257814	-1141.969848632813	-286.9035949707032	544.9191284179689	-1112.18603515625	-274.3041687011719	461.5718994140626	-1153.591064453125	-193.8171081542969	406.358367919922	-1151.84326171875	-149.8777160644532	397.2134399414064	-1027.882934570313	-163.7281799316407	283.0574645996094	-1109.224975585938	-239.5752105712891	269.2649536132813	-1154.326538085938	-207.7900543212891	250.0852661132813	-1133.397216796875	-248.4057312011719	186.7969055175782	-1098.613159179688	-385.8439025878907	92.62786865234376	-1105.721923828125	-344.2548828125001	99.72930145263675	-1024.751220703125	-440.2448120117189	50.61590957641603	-1051.563598632813	-228.7223052978516	51.3728485107422	-1072.02880859375	-236.0233154296876	57.88761138916017	-1119.817504882813	-283.4736328125001	42.51689529418946	-1165.430053710938	-433.3525390625001	531.0995483398439	-686.0509033203126	-368.9556274414063	541.0486450195314	-681.8577880859376	-358.1568298339844	568.4807128906251	-701.7742309570314	-310.9242553710938	483.4488525390626	-666.5441894531251	-192.1615905761719	407.921844482422	-675.5541992187501	-155.2651672363282	406.3391418457032	-793.0905761718752	-176.9922790527344	271.3572692871094	-744.8306884765626	-261.6253967285157	222.2019195556641	-692.8884887695314	-230.6327056884766	206.171859741211	-724.4161987304689	-256.7006225585938	172.9593658447266	-766.9901123046876	-374.6398315429688	89.3610305786133	-737.7773437500001	-331.8761901855469	106.2334747314453	-817.1474609375002	-424.4695129394532	50.15182495117189	-800.3096313476565	-216.8748168945313	58.08253479003908	-763.0555419921876	-226.6251220703126	57.88257598876955	-722.5288085937501	-269.9088745117188	35.8339958190918	-676.4297485351564	-41.07522201538087	1086.786376953125	-805.6037597656252	
